<mxfile host="app.diagrams.net" modified="2023-02-04T17:58:48.675Z" agent="5.0 (X11; Linux x86_64) AppleWebKit/537.36 (KHTML, like Gecko) Chrome/109.0.0.0 Safari/537.36" etag="2yUszZMJjRCVayLTy5Jo" version="20.8.15" type="github">
  <diagram name="Page-1" id="929967ad-93f9-6ef4-fab6-5d389245f69c">
    <mxGraphModel dx="1600" dy="1091" grid="1" gridSize="10" guides="1" tooltips="1" connect="1" arrows="1" fold="1" page="1" pageScale="1.5" pageWidth="1169" pageHeight="826" background="none" math="0" shadow="0">
      <root>
        <mxCell id="0" style=";html=1;" />
        <mxCell id="1" style=";html=1;" parent="0" />
        <mxCell id="1672d66443f91eb5-2" value="HSUVSpecification" style="shape=folder;tabWidth=80;tabHeight=20;tabPosition=left;strokeWidth=1;html=1;whiteSpace=wrap;align=center;fontSize=12;fontStyle=1" parent="1" vertex="1">
          <mxGeometry x="1831" y="445" width="160" height="90" as="geometry" />
        </mxCell>
        <mxCell id="1672d66443f91eb5-3" value="&lt;b&gt;RefinedBy&lt;/b&gt;&lt;div&gt;&amp;lt;&amp;lt;&amp;gt;useCase&amp;gt; HSUVUseCases : Accelerate&lt;/div&gt;" style="shape=note;size=15;align=left;spacingLeft=10;html=1;whiteSpace=wrap;strokeColor=#000000;strokeWidth=1;fillColor=#ffffff;fontSize=12;" parent="1" vertex="1">
          <mxGeometry x="2261" y="455" width="300" height="60" as="geometry" />
        </mxCell>
        <mxCell id="1672d66443f91eb5-13" style="edgeStyle=orthogonalEdgeStyle;rounded=0;html=1;jettySize=auto;orthogonalLoop=1;endArrow=circlePlus;endFill=0;" parent="1" source="1672d66443f91eb5-4" target="1672d66443f91eb5-2" edge="1">
          <mxGeometry relative="1" as="geometry">
            <Array as="points">
              <mxPoint x="1871" y="575" />
              <mxPoint x="1911" y="575" />
            </Array>
          </mxGeometry>
        </mxCell>
        <mxCell id="1672d66443f91eb5-4" value="&lt;p&gt;&amp;lt;&amp;lt;requirement&amp;gt;&amp;gt;&lt;/p&gt;&lt;p&gt;Eco-Friendliness&lt;/p&gt;" style="shape=rect;html=1;overflow=fill;whiteSpace=wrap;align=center;fontStyle=1" parent="1" vertex="1">
          <mxGeometry x="1791" y="625" width="160" height="80" as="geometry" />
        </mxCell>
        <mxCell id="1672d66443f91eb5-15" style="edgeStyle=orthogonalEdgeStyle;rounded=0;html=1;endArrow=circlePlus;endFill=0;jettySize=auto;orthogonalLoop=1;startArrow=none;" parent="1" target="1672d66443f91eb5-2" edge="1">
          <mxGeometry relative="1" as="geometry">
            <Array as="points" />
            <mxPoint x="2151" y="495" as="sourcePoint" />
          </mxGeometry>
        </mxCell>
        <mxCell id="1672d66443f91eb5-5" value="&lt;p&gt;&amp;lt;&amp;lt;requirement&amp;gt;&amp;gt;&lt;/p&gt;&lt;p&gt;Performance&lt;/p&gt;" style="shape=rect;html=1;overflow=fill;whiteSpace=wrap;align=center;fontStyle=1" parent="1" vertex="1">
          <mxGeometry x="2031" y="625" width="160" height="70" as="geometry" />
        </mxCell>
        <mxCell id="1672d66443f91eb5-21" style="edgeStyle=none;rounded=0;html=1;dashed=1;endArrow=none;endFill=0;jettySize=auto;orthogonalLoop=1;" parent="1" source="1672d66443f91eb5-6" target="1672d66443f91eb5-9" edge="1">
          <mxGeometry relative="1" as="geometry" />
        </mxCell>
        <mxCell id="1672d66443f91eb5-6" value="&lt;p&gt;&amp;lt;&amp;lt;requirement&amp;gt;&amp;gt;&lt;/p&gt;&lt;p&gt;Power&lt;/p&gt;" style="shape=rect;html=1;overflow=fill;whiteSpace=wrap;align=center;fontStyle=1" parent="1" vertex="1">
          <mxGeometry x="2501" y="625" width="160" height="70" as="geometry" />
        </mxCell>
        <mxCell id="1672d66443f91eb5-16" style="edgeStyle=orthogonalEdgeStyle;rounded=0;html=1;endArrow=circlePlus;endFill=0;jettySize=auto;orthogonalLoop=1;entryX=0.25;entryY=1;" parent="1" source="1672d66443f91eb5-7" target="1672d66443f91eb5-5" edge="1">
          <mxGeometry relative="1" as="geometry">
            <Array as="points">
              <mxPoint x="2021" y="725" />
              <mxPoint x="2071" y="725" />
            </Array>
          </mxGeometry>
        </mxCell>
        <mxCell id="1672d66443f91eb5-7" value="&lt;p&gt;&amp;lt;&amp;lt;requirement&amp;gt;&amp;gt;&lt;/p&gt;&lt;p&gt;Braking&lt;/p&gt;" style="shape=rect;html=1;overflow=fill;whiteSpace=wrap;align=center;fontStyle=1" parent="1" vertex="1">
          <mxGeometry x="1941" y="745" width="160" height="70" as="geometry" />
        </mxCell>
        <mxCell id="1672d66443f91eb5-17" style="edgeStyle=orthogonalEdgeStyle;rounded=0;html=1;endArrow=circlePlus;endFill=0;jettySize=auto;orthogonalLoop=1;entryX=0.5;entryY=1;" parent="1" source="1672d66443f91eb5-8" target="1672d66443f91eb5-5" edge="1">
          <mxGeometry relative="1" as="geometry">
            <Array as="points">
              <mxPoint x="2211" y="725" />
              <mxPoint x="2111" y="725" />
            </Array>
          </mxGeometry>
        </mxCell>
        <mxCell id="1672d66443f91eb5-8" value="&lt;p&gt;&amp;lt;&amp;lt;requirement&amp;gt;&amp;gt;&lt;/p&gt;&lt;p&gt;FuelEconomy&lt;/p&gt;" style="shape=rect;html=1;overflow=fill;whiteSpace=wrap;align=center;fontStyle=1" parent="1" vertex="1">
          <mxGeometry x="2131" y="745" width="160" height="70" as="geometry" />
        </mxCell>
        <mxCell id="1672d66443f91eb5-18" style="edgeStyle=orthogonalEdgeStyle;rounded=0;html=1;endArrow=circlePlus;endFill=0;jettySize=auto;orthogonalLoop=1;entryX=0.75;entryY=1;" parent="1" source="1672d66443f91eb5-9" target="1672d66443f91eb5-5" edge="1">
          <mxGeometry relative="1" as="geometry">
            <Array as="points">
              <mxPoint x="2411" y="715" />
              <mxPoint x="2151" y="715" />
            </Array>
          </mxGeometry>
        </mxCell>
        <mxCell id="1672d66443f91eb5-22" style="edgeStyle=none;rounded=0;html=1;dashed=1;endArrow=none;endFill=0;jettySize=auto;orthogonalLoop=1;" parent="1" source="1672d66443f91eb5-9" target="1672d66443f91eb5-3" edge="1">
          <mxGeometry relative="1" as="geometry" />
        </mxCell>
        <mxCell id="1672d66443f91eb5-9" value="&lt;p&gt;&amp;lt;&amp;lt;requirement&amp;gt;&amp;gt;&lt;/p&gt;&lt;p&gt;Acceleration&lt;/p&gt;" style="shape=rect;html=1;overflow=fill;whiteSpace=wrap;align=center;fontStyle=1" parent="1" vertex="1">
          <mxGeometry x="2331" y="745" width="160" height="70" as="geometry" />
        </mxCell>
        <mxCell id="1672d66443f91eb5-14" style="edgeStyle=orthogonalEdgeStyle;rounded=0;html=1;endArrow=circlePlus;endFill=0;jettySize=auto;orthogonalLoop=1;" parent="1" source="1672d66443f91eb5-10" target="1672d66443f91eb5-4" edge="1">
          <mxGeometry relative="1" as="geometry">
            <Array as="points">
              <mxPoint x="1871" y="845" />
              <mxPoint x="1871" y="845" />
            </Array>
          </mxGeometry>
        </mxCell>
        <mxCell id="1672d66443f91eb5-10" value="&lt;p style=&quot;margin: 0px ; margin-top: 4px ; text-align: center&quot;&gt;&amp;lt;&amp;lt;requirement&amp;gt;&amp;gt;&lt;br&gt;&lt;b&gt;Emissions&lt;/b&gt;&lt;/p&gt;&lt;hr&gt;&lt;p style=&quot;margin: 0px ; margin-left: 8px ; text-align: left&quot;&gt;Id = &quot;R1.1.2&quot;&lt;/p&gt;&lt;p style=&quot;margin: 0px ; margin-left: 8px ; text-align: left&quot;&gt;text=&quot;The vehicle shall meet UltraLow Emissions Vehicle standards.&quot;&lt;/p&gt;" style="shape=rect;html=1;overflow=fill;whiteSpace=wrap;" parent="1" vertex="1">
          <mxGeometry x="1821" y="875" width="290" height="120" as="geometry" />
        </mxCell>
        <mxCell id="1672d66443f91eb5-19" style="rounded=0;html=1;endArrow=none;endFill=0;jettySize=auto;orthogonalLoop=1;dashed=1;" parent="1" source="1672d66443f91eb5-11" target="1672d66443f91eb5-9" edge="1">
          <mxGeometry relative="1" as="geometry" />
        </mxCell>
        <mxCell id="1672d66443f91eb5-11" value="&lt;b&gt;VerifiedBy&lt;/b&gt;&lt;div&gt;&amp;lt;&amp;lt;testCase&amp;gt;&amp;gt; MaxAcceleration&lt;/div&gt;" style="shape=note;size=15;align=left;spacingLeft=10;html=1;whiteSpace=wrap;strokeWidth=1;fontSize=12;" parent="1" vertex="1">
          <mxGeometry x="2226" y="915" width="210" height="60" as="geometry" />
        </mxCell>
        <mxCell id="1672d66443f91eb5-20" style="edgeStyle=none;rounded=0;html=1;dashed=1;endArrow=none;endFill=0;jettySize=auto;orthogonalLoop=1;" parent="1" source="1672d66443f91eb5-12" target="1672d66443f91eb5-6" edge="1">
          <mxGeometry relative="1" as="geometry" />
        </mxCell>
        <mxCell id="1672d66443f91eb5-12" value="&lt;b&gt;SatisfiedBy&lt;/b&gt;&lt;div&gt;&amp;lt;&amp;lt;block&amp;gt;&amp;gt; PowerSubsystem&lt;/div&gt;" style="shape=note;size=15;align=left;spacingLeft=10;html=1;whiteSpace=wrap;strokeWidth=1;fontSize=12;" parent="1" vertex="1">
          <mxGeometry x="2476" y="915" width="210" height="60" as="geometry" />
        </mxCell>
        <mxCell id="1672d66443f91eb5-23" value="Adventure Works - Diagrama Conceitual do Data Warehouse - Vendas" style="text;strokeColor=none;fillColor=none;html=1;fontSize=24;fontStyle=1;verticalAlign=middle;align=center;" parent="1" vertex="1">
          <mxGeometry x="120" y="40" width="1510" height="40" as="geometry" />
        </mxCell>
        <mxCell id="FxJiaOS-in8cvKVXIkGy-1" value="" style="edgeStyle=orthogonalEdgeStyle;rounded=0;html=1;endArrow=none;endFill=0;jettySize=auto;orthogonalLoop=1;" edge="1" parent="1" source="1672d66443f91eb5-5">
          <mxGeometry relative="1" as="geometry">
            <Array as="points">
              <mxPoint x="2111" y="575" />
              <mxPoint x="1911" y="575" />
            </Array>
            <mxPoint x="2111" y="625" as="sourcePoint" />
            <mxPoint x="2151" y="495" as="targetPoint" />
          </mxGeometry>
        </mxCell>
        <mxCell id="1672d66443f91eb5-1" value="&lt;p style=&quot;margin: 0px ; margin-top: 4px ; margin-left: 10px ; text-align: left&quot;&gt;&lt;b&gt;req&lt;/b&gt;&amp;nbsp;[package] HSUVRequirements[HSUV Specification]&lt;/p&gt;" style="html=1;strokeWidth=1;shape=mxgraph.sysml.package;html=1;overflow=fill;whiteSpace=wrap;fillColor=none;gradientColor=none;fontSize=12;align=center;labelX=327.64;" parent="1" vertex="1">
          <mxGeometry x="1771" y="420" width="1120" height="650" as="geometry" />
        </mxCell>
        <mxCell id="FxJiaOS-in8cvKVXIkGy-2" value="List" style="swimlane;fontStyle=0;childLayout=stackLayout;horizontal=1;startSize=26;horizontalStack=0;resizeParent=1;resizeParentMax=0;resizeLast=0;collapsible=1;marginBottom=0;align=center;fontSize=14;" vertex="1" parent="1">
          <mxGeometry x="540" y="280" width="160" height="116" as="geometry" />
        </mxCell>
        <mxCell id="FxJiaOS-in8cvKVXIkGy-3" value="Item 1" style="text;strokeColor=none;fillColor=none;spacingLeft=4;spacingRight=4;overflow=hidden;rotatable=0;points=[[0,0.5],[1,0.5]];portConstraint=eastwest;fontSize=12;" vertex="1" parent="FxJiaOS-in8cvKVXIkGy-2">
          <mxGeometry y="26" width="160" height="30" as="geometry" />
        </mxCell>
        <mxCell id="FxJiaOS-in8cvKVXIkGy-4" value="Item 2" style="text;strokeColor=none;fillColor=none;spacingLeft=4;spacingRight=4;overflow=hidden;rotatable=0;points=[[0,0.5],[1,0.5]];portConstraint=eastwest;fontSize=12;" vertex="1" parent="FxJiaOS-in8cvKVXIkGy-2">
          <mxGeometry y="56" width="160" height="30" as="geometry" />
        </mxCell>
        <mxCell id="FxJiaOS-in8cvKVXIkGy-5" value="Item 3" style="text;strokeColor=none;fillColor=none;spacingLeft=4;spacingRight=4;overflow=hidden;rotatable=0;points=[[0,0.5],[1,0.5]];portConstraint=eastwest;fontSize=12;" vertex="1" parent="FxJiaOS-in8cvKVXIkGy-2">
          <mxGeometry y="86" width="160" height="30" as="geometry" />
        </mxCell>
      </root>
    </mxGraphModel>
  </diagram>
</mxfile>
